<?xml version="1.0" encoding="UTF-8" standalone="no"?>
<svg
   version="1.1"
   viewBox="0 0 16 16"
   id="svg6"
   sodipodi:docname="overscript.svg"
   inkscape:version="1.1.1 (eb90963e84, 2021-10-02)"
   xmlns:inkscape="http://www.inkscape.org/namespaces/inkscape"
   xmlns:sodipodi="http://sodipodi.sourceforge.net/DTD/sodipodi-0.dtd"
   xmlns="http://www.w3.org/2000/svg"
   xmlns:svg="http://www.w3.org/2000/svg">
  <defs
     id="defs10" />
  <sodipodi:namedview
     id="namedview8"
     pagecolor="#ffffff"
     bordercolor="#666666"
     borderopacity="1.0"
     inkscape:pageshadow="2"
     inkscape:pageopacity="0.0"
     inkscape:pagecheckerboard="0"
     showgrid="false"
     inkscape:zoom="54.5625"
     inkscape:cx="8"
     inkscape:cy="9.4662085"
     inkscape:window-width="3772"
     inkscape:window-height="2096"
     inkscape:window-x="1988"
     inkscape:window-y="1107"
     inkscape:window-maximized="1"
     inkscape:current-layer="svg6" />
  <rect
     style="fill:#f2f2f2"
     id="rect51"
     width="14.264694"
     height="10.834383"
     x="0.88632947"
     y="3.1064956" />
  <path
     d="M 3.99,2 C 2.7318,2.0145 1.8111,1.9694 1.0584,2.38477 0.68203,2.59243 0.38517,2.94415 0.22051,3.38281 0.05584,3.82148 -0.0041,4.34239 -0.0041,5.00001 v 7 c 0,0.65761 0.0599,1.1785 0.22461,1.6172 0.16467,0.43866 0.46152,0.79039 0.83789,0.99804 0.75275,0.41532 1.6734,0.3702 2.9316,0.38477 h 0.004 8.0039 0.004 c 1.2582,-0.0145 2.1789,0.0306 2.9316,-0.38477 0.37637,-0.20766 0.67322,-0.55938 0.83789,-0.99804 0.16413,-0.43867 0.22443,-0.95958 0.22443,-1.6172 v -7 c 0,-0.65761 -0.0599,-1.1785 -0.22461,-1.6172 C 15.60655,2.94415 15.30969,2.59243 14.93332,2.38477 14.18057,1.96943 13.25992,2.01452 12.00172,2 h -0.004 -8.0039 z m 2.9023,1.0918 c 1.749,-0.004 3.4973,-10e-4 5.2461,0.0215 0.86117,0.14671 2.161,-0.34154 2.6738,0.66797 0.25574,2.924 0.0694,5.882 0.1289,8.8184 -0.0871,0.38019 -0.18482,1.1436 -0.73047,1.1289 -3.5364,0.23538 -7.0915,0.10846 -10.635,0.13476 -0.78646,-0.11198 -1.9999,0.2903 -2.4043,-0.6914 -0.1705,-2.4656 -0.0888,-4.9496 -0.0898,-7.4356 0.12175,-0.84105 -0.29598,-2.0645 0.6875,-2.5117 1.6892,-0.21162 3.4084,-0.0775 5.123,-0.13281 z"
     color="#000000"
     color-rendering="auto"
     dominant-baseline="auto"
     fill="#808080"
     image-rendering="auto"
     shape-rendering="auto"
     solid-color="#000000"
     style="font-variant-ligatures:normal;font-variant-position:normal;font-variant-caps:normal;font-variant-numeric:normal;font-variant-alternates:normal;font-feature-settings:normal;text-indent:0;text-decoration-line:none;text-decoration-style:solid;text-decoration-color:#000000;text-transform:none;text-orientation:mixed;white-space:normal;shape-padding:0;isolation:auto;mix-blend-mode:normal;fill:#ff6600"
     id="path2"
     sodipodi:nodetypes="cccssccccccccssccccccccccccccccc" />
  <g
     id="g588"
     transform="translate(0.02623236,0.22133129)">
    <path
       d="m 2.2670711,7.4803537 c -0.47384,0.0193 -0.65721,0.62569 -0.27344,0.90429 l 1.4668,1.0996 -1.4668,1.0996003 c -0.53385,0.40104 0.0677,1.2018 0.60157,0.80078 l 2,-1.5000003 c 0.26732,-0.2 0.26732,-0.60078 0,-0.80078 l -2,-1.5 c -0.0937,-0.0722 -0.20995,-0.10851 -0.32813,-0.10351 z m 2.5274,4.0039003 v 1 h 3 v -1 z"
       style="color:#000000;font-variant-ligatures:normal;font-variant-position:normal;font-variant-caps:normal;font-variant-numeric:normal;font-variant-alternates:normal;font-feature-settings:normal;text-indent:0;text-decoration-line:none;text-decoration-style:solid;text-decoration-color:#000000;text-transform:none;text-orientation:mixed;dominant-baseline:auto;white-space:normal;shape-padding:0;isolation:auto;mix-blend-mode:normal;solid-color:#000000;fill:#55d400;color-rendering:auto;image-rendering:auto;shape-rendering:auto"
       id="path94" />
    <path
       d="m 8.6260775,7.4803537 c -0.47384,0.0193 -0.65721,0.62569 -0.27344,0.90429 l 1.4668,1.0996 -1.4668,1.0995993 c -0.53385,0.40104 0.0677,1.2018 0.60157,0.80078 L 10.954207,9.8846234 c 0.26732,-0.1999997 0.26732,-0.6007797 0,-0.8007797 l -1.9999995,-1.5 c -0.0937,-0.0722 -0.20995,-0.10851 -0.32813,-0.10351 z m 2.5273995,4.0038993 v 1 h 3 v -1 z"
       style="color:#000000;font-variant-ligatures:normal;font-variant-position:normal;font-variant-caps:normal;font-variant-numeric:normal;font-variant-alternates:normal;font-feature-settings:normal;text-indent:0;text-decoration-line:none;text-decoration-style:solid;text-decoration-color:#000000;text-transform:none;text-orientation:mixed;dominant-baseline:auto;white-space:normal;shape-padding:0;isolation:auto;mix-blend-mode:normal;solid-color:#000000;fill:#6600ff;color-rendering:auto;image-rendering:auto;shape-rendering:auto"
       id="path94-3" />
    <rect
       style="fill:#6600ff;stroke:#000000;stroke-width:1"
       id="rect334"
       width="4.1528897"
       height="0.88802975"
       x="2.2857783"
       y="4.5731034"
       ry="0.10446981"
       rx="0.10446981" />
    <rect
       style="fill:#6600ff;stroke:#000000;stroke-width:1"
       id="rect334-7"
       width="4.1528897"
       height="0.88802975"
       x="8.6447849"
       y="4.5731034"
       ry="0.10446981"
       rx="0.10446981" />
  </g>
</svg>
